<!-- CSS -->

<svg xmlns="http://www.w3.org/2000/svg" xmlns:xlink="http://www.w3.org/1999/xlink" aria-hidden="true" role="img"
    class="iconify iconify--vscode-icons" width="100%" height="100%" preserveAspectRatio="xMidYMid meet"
    viewBox="0 0 32 32" data-icon="vscode-icons:file-type-css">

    <path fill="rgba(111, 115, 210, 0.3)" d="M5.902 27.201L3.656 2h24.688l-2.249 25.197L15.985 30L5.902 27.201z"></path>
    <path fill="#FFF" d="M16 13.191h4.09l.282-3.165H16V6.935h7.75l-.074.829l-.759 8.518H16v-3.091z"></path>

    <path fill="#EBEBEB" d="m16.019 21.218l-.014.004l-3.442-.93l-.22-2.465H9.24l.433 4.853l6.331 1.758l.015-.004v-3.216z"></path>
    <path fill="#FFF" d="m19.827 16.151l-.372 4.139l-3.447.93v3.216l6.336-1.756l.047-.522l.537-6.007h-3.101z"></path>

    <path fill="#EBEBEB" d="M16.011 6.935v3.091H8.545l-.062-.695l-.141-1.567l-.074-.829h7.743zM16 13.191v3.091h-3.399l-.062-.695l-.14-1.567l-.074-.829H16z"></path>
</svg>